<svg class="thumb" width="1000" height="1000" viewBox="0,0,600,600" xmlns="http://www.w3.org/2000/svg" xmlns:inkscape="http://www.inkscape.org/namespaces/inkscape" xmlns:sodipodi="http://sodipodi.sourceforge.net/DTD/sodipodi-0.dtd" xmlns:xlink="http://www.w3.org/1999/xlink" xmlns:ns1="http://www.inkscape.org/namespaces/inkscape" xmlns:sketch="http://www.bohemiancoding.com/sketch/ns">
  <defs></defs>
  <g transform="matrix(1.3115,0,0,1.3115,-103.917,17.961)">
    <g transform="matrix(3.6289,0,0,3.6289,101.0684,0.4315)">
      <svg width="109.999" height="67.98799999999999" viewBox="-4.624,14.508999999999997,109.999,67.98799999999999">
        <defs>
          <linearGradient x1="0" y1="0.5" x2="1" y2="0.5" id="linearGradientSk4zvm7934">
            <stop offset="0%" stop-color="#ffc04a"></stop>
            <stop offset="100%" stop-color="#ff6347"></stop>
          </linearGradient>
        </defs>
        <g></g>
        <g></g>
        <g></g>
        <g></g>
        <g>
          <path fill="url('#linearGradientSk4zvm7934')" d="M96.897,37.513c1.921,0,3.478-1.558,3.478-3.479c0-1.92-1.557-3.478-3.478-3.478s-3.478,1.558-3.478,3.478  c0,0.422,0.079,0.825,0.217,1.2l-10.153,8.649l-12.864-7.567c0.073-0.297,0.116-0.607,0.116-0.927c0-2.142-1.736-3.878-3.878-3.878  c-0.869,0-1.668,0.289-2.314,0.772L52.92,23.054c0.054-0.22,0.086-0.448,0.086-0.684c0-1.581-1.281-2.861-2.861-2.861  s-2.861,1.281-2.861,2.861c0,0.729,0.275,1.393,0.724,1.898l-5.835,12.488c-0.26-0.045-0.526-0.074-0.8-0.074  c-0.86,0-1.662,0.239-2.351,0.647l-15.438-6.915c0.036-0.225,0.06-0.454,0.06-0.689c0-2.38-1.929-4.309-4.309-4.309  c-2.379,0-4.309,1.929-4.309,4.309s1.929,4.309,4.309,4.309c1.352,0,2.556-0.623,3.346-1.596l14.682,6.576  c-0.384,0.674-0.607,1.452-0.607,2.284c0,0.852,0.293,1.605,0.694,2.29l-8.233,8.237c-1.136-0.811-2.506-1.294-4.003-1.294  c-2.642,0-4.915,1.501-6.082,3.684l-0.096-0.032c-0.001,0.012-0.004,0.023-0.005,0.035L7.553,49.002  c0.016-0.134,0.025-0.271,0.025-0.409c0-1.989-1.612-3.601-3.601-3.601s-3.601,1.612-3.601,3.601s1.612,3.601,3.601,3.601  c1.054,0,1.999-0.455,2.657-1.177l11.723,5.329c-0.005,0.013-0.009,0.025-0.015,0.037l0.056,0.019  c-0.054,0.348-0.108,0.694-0.108,1.055c0,1.954,0.813,3.716,2.115,4.975l-0.017,0.013c0.004,0.005,0.008,0.01,0.012,0.014  l-5.973,8.802c-0.155-0.027-0.314-0.044-0.478-0.044c-1.479,0-2.678,1.198-2.678,2.678c0,1.479,1.199,2.678,2.678,2.678  c1.479,0,2.678-1.199,2.678-2.678c0-0.501-0.14-0.969-0.38-1.37l5.364-7.904l0.71-0.877c0.881,0.407,1.859,0.641,2.894,0.641  c1.902,0,3.629-0.771,4.883-2.016l6.993,4.991c-0.199,0.514-0.334,1.06-0.334,1.641c0,2.548,2.065,4.617,4.617,4.617  c2.159,0,3.965-1.483,4.471-3.482l15.916-4.923c0.977,1.815,2.893,3.05,5.099,3.05c1.273,0,2.447-0.417,3.403-1.114l7.12,6.611  c-0.038,0.193-0.059,0.393-0.059,0.597c0,1.734,1.406,3.14,3.14,3.14s3.139-1.405,3.139-3.14c0-1.733-1.405-3.139-3.139-3.139  c-0.707,0-1.358,0.236-1.883,0.631l-6.811-6.323c0.552-0.887,0.893-1.93,0.893-3.05c0-2.815-1.661-5.16-4.661-5.677V39.104  c1-0.172,1.082-0.478,1.513-0.878l13.332,7.848l11.179,15.655c-0.092,0.23-0.146,0.481-0.146,0.745c0,1.125,0.91,2.037,2.035,2.037  s2.037-0.912,2.037-2.037s-0.913-2.037-2.038-2.037c-0.03,0-0.06,0.003-0.09,0.005L85.094,45.422l9.931-8.459  C95.565,37.31,96.207,37.513,96.897,37.513z M61.07,62.474c0,0.21,0.013,0.416,0.035,0.62l-15.275,4.724  c-0.522-1.975-2.316-3.435-4.458-3.435c-1.123,0-2.114,0.451-2.913,1.113l-7.038-5.022c0.447-0.92,0.717-1.93,0.717-3.017  c0-1.492-0.487-2.871-1.29-3.999l8.233-8.237c0.686,0.401,1.438,0.694,2.291,0.694c1.642,0,3.079-0.857,3.897-2.147l17.222,14.914  C61.609,59.699,61.07,61.022,61.07,62.474z M66,56.797c-1,0.1-1.135,0.273-1.596,0.502l-18.36-15.846  c0.002-0.052-0.023-0.102-0.023-0.154c0-1.485-0.718-2.802-1.806-3.646l5.799-12.428c0.046,0.002,0.088,0.007,0.134,0.007  c0.53,0,1.023-0.147,1.449-0.399l11.621,9.229c-0.151,0.415-0.113,0.861-0.113,1.328c0,1.757,0.895,3.238,2.895,3.715V56.797z" stroke="none" style=""></path>
        </g>
      </svg>
    </g>
    <g transform="matrix(0.8039,0,0,0.8039,124.6184,77.7744)">
      <svg width="13.555296339200027" height="13.549999999999997" viewBox="43.22235183039999,65.762,13.555296339200027,13.549999999999997">
        <defs></defs>
        <g></g>
        <g></g>
        <g></g>
        <g>
          <circle fill="none" cx="50" cy="72.537" r="1.775" stroke="none" style=""></circle>
        </g>
      </svg>
    </g>
    <g transform="matrix(0.8039,0,0,0.8039,115.5791,33.5391)">
      <svg width="33.429130748761764" height="31.053000848062695" viewBox="33.10999999999999,10.721999151937302,33.429130748761764,31.053000848062695">
        <defs></defs>
        <g></g>
        <g></g>
        <g></g>
        <g>
          <path fill="none" d="M39.106,25.903c0.205,0.205,0.417,0.306,0.62,0.271c0.098-0.018,0.187-0.065,0.267-0.14   c0.986,3.067,2.876,7.224,5.26,9.048c1.374,1.05,2.911,1.693,4.534,1.693c1.659,0,3.228-0.672,4.624-1.764   c2.342-1.833,4.195-5.949,5.169-8.977c0.08,0.075,0.169,0.123,0.268,0.14c0.174,0.03,0.356-0.04,0.533-0.19   c0.446-0.378,0.864-1.261,1.056-2.333c0.25-1.398,0.025-2.624-0.5-2.869c-0.038-0.018-0.078-0.032-0.12-0.039   c-0.162-0.028-0.332,0.033-0.499,0.163l-0.009,0.011c0-0.001-0.001-0.003-0.001-0.003c-0.002,0.001-0.003,0.002-0.005,0.003   c-0.001-0.01-0.001-0.02-0.002-0.03c-0.634-2.402-1.43-3.874-2.253-4.748c-0.157-0.084-0.323-0.155-0.502-0.207   c-0.021,0.354,0.382,0.891,0.425,1.415c-1.14-0.53-2.228-1.355-3.817-1.415c-0.365-0.014-0.755-0.012-1.159-0.004   c-3.845,1.388-8.086-0.178-8.086-0.178c-4.812-0.445-5.575,4.553-5.634,5.125c-0.001,0.014-0.002,0.028-0.003,0.042l0-0.001   c-0.171-0.137-0.345-0.201-0.512-0.173c-0.073,0.014-0.142,0.043-0.205,0.089c-0.153,0.109-0.275,0.312-0.363,0.579   c-0.047,0.674-0.071,1.356-0.082,2.06c0.009,0.06,0.018,0.12,0.029,0.18C38.315,24.654,38.693,25.491,39.106,25.903z" stroke="none" style=""></path>
        </g>
      </svg>
    </g>
    <g transform="matrix(0.8039,0,0,0.8039,103.1182,53.1567)">
      <svg width="64.28800000000001" height="22.627000000000002" viewBox="17.85099999999999,34.864999999999995,64.28800000000001,22.627000000000002">
        <defs>
          <linearGradient x1="0" y1="0.5" x2="1" y2="0.5" id="linearGradientSk4zvm793g">
            <stop offset="0%" stop-color="#000000"></stop>
            <stop offset="100%" stop-color="#000000"></stop>
          </linearGradient>
        </defs>
        <g></g>
        <g></g>
        <g></g>
        <g>
          <path fill="url('#linearGradientSk4zvm793g')" d="M48.034,52.492L48.034,52.492h3.434h3.682h11.645h8.339h2.005c-0.034-0.178-0.075-0.354-0.126-0.529   c-3.091-10.632-8.801-10.998-10.03-11.285c-2.419-0.567-5.35-0.325-6.912-0.813c-0.274,2.289-4.68,4.109-10.076,4.109   c-5.395,0-9.801-1.82-10.075-4.109c-1.563,0.488-4.493,0.247-6.913,0.813c-1.229,0.287-6.939,0.653-10.03,11.285   c-0.051,0.175-0.092,0.352-0.126,0.529h21.651H48.034z" stroke="none" style=""></path>
        </g>
      </svg>
    </g>
    <g transform="matrix(0.8039,0,0,0.8039,113.5693,25.3135)">
      <svg width="38.01509074975003" height="44.14914676303743" viewBox="30.724003875430142,-0.00014676303743765828,38.01509074975003,44.14914676303743">
        <defs>
          <linearGradient x1="0" y1="0.5" x2="1" y2="0.5" id="linearGradientSk4zvm793m">
            <stop offset="0%" stop-color="#000000"></stop>
            <stop offset="100%" stop-color="#000000"></stop>
          </linearGradient>
        </defs>
        <g></g>
        <g></g>
        <g></g>
        <g>
          <path d="M37.994,27.074c1.073,2.888,2.772,6.79,4.872,8.841c1.189,1.161,2.506,2.082,3.911,2.638   c0.966,0.384,1.973,0.596,3.009,0.596c1.035,0,2.042-0.212,3.008-0.596c1.454-0.577,2.814-1.541,4.035-2.759   c2.049-2.046,3.705-5.906,4.757-8.745c0.809-0.237,1.657-1.753,2.003-3.689c0.375-2.1,0.023-3.933-0.785-4.242   c0.029-0.511,0.045-1.031,0.043-1.56C62.828,9.944,58.363,5.518,51.322,5.045c-6.137-0.412-10.761,2.026-12.867,6.08   c-0.7,1.348-1.105,3.027-1.266,4.855c-0.247,0.984-0.378,2.013-0.378,3.073h0.023c-0.001,0.008-0.001,0.016-0.002,0.024   c-0.015,0.002-0.03,0.003-0.045,0.005c-0.898,0.156-1.307,2.071-0.913,4.278C36.236,25.389,37.151,26.956,37.994,27.074z    M38.188,21.411c0.087-0.267,0.209-0.469,0.363-0.579c0.063-0.046,0.132-0.076,0.205-0.089c0.167-0.028,0.341,0.036,0.512,0.173   l0,0.001c0.001-0.014,0.002-0.027,0.003-0.042c0.059-0.572,0.822-5.571,5.634-5.125c0,0,4.241,1.566,8.086,0.178   c0.404-0.008,0.794-0.01,1.159,0.004c1.59,0.059,2.678,0.884,3.817,1.415c-0.043-0.523-0.446-1.061-0.425-1.415   c0.179,0.052,0.345,0.123,0.502,0.207c0.823,0.874,1.619,2.346,2.253,4.748c0.001,0.01,0.001,0.021,0.002,0.03   c0.002-0.001,0.003-0.002,0.005-0.003c0,0,0.001,0.002,0.001,0.003l0.009-0.011c0.167-0.13,0.337-0.191,0.499-0.163   c0.042,0.007,0.082,0.021,0.12,0.039c0.525,0.245,0.75,1.471,0.5,2.869c-0.191,1.072-0.609,1.955-1.056,2.333   c-0.177,0.15-0.359,0.22-0.533,0.19c-0.099-0.018-0.188-0.065-0.268-0.14c-0.974,3.028-2.827,7.145-5.169,8.977   c-1.396,1.092-2.965,1.764-4.624,1.764c-1.623,0-3.16-0.644-4.534-1.693c-2.383-1.824-4.273-5.981-5.26-9.048   c-0.08,0.075-0.169,0.123-0.267,0.14c-0.202,0.036-0.415-0.066-0.62-0.271c-0.413-0.412-0.791-1.249-0.97-2.252   c-0.011-0.061-0.02-0.12-0.029-0.18C38.117,22.767,38.141,22.085,38.188,21.411z" stroke="none" fill="url('#linearGradientSk4zvm793m')" style=""></path>
        </g>
      </svg>
    </g>
    <g transform="matrix(0.8039,0,0,0.8039,102.5103,95.1764)">
      <svg width="68.49400000000001" height="12.858000000000004" viewBox="15.753,87.143,68.49400000000001,12.858000000000004">
        <defs>
          <linearGradient x1="0" y1="0.5" x2="1" y2="0.5" id="linearGradientSk4zvm793s">
            <stop offset="0%" stop-color="#000000"></stop>
            <stop offset="100%" stop-color="#000000"></stop>
          </linearGradient>
        </defs>
        <g></g>
        <g></g>
        <g></g>
        <g>
          <path fill="url('#linearGradientSk4zvm793s')" d="M77.829,92.143H22.171c-0.783,0-1.418,0.641-1.418,1.429c0,0.789,0.635,1.429,1.418,1.429h55.658   c0.784,0,1.418-0.64,1.418-1.429C79.246,92.783,78.611,92.143,77.829,92.143z" stroke="none" style=""></path>
        </g>
      </svg>
    </g>
    <g transform="matrix(0.8039,0,0,0.8039,98.0887,63.7056)">
      <svg width="79.635" height="48.11" viewBox="10.183000000000003,48.188,79.635,48.11">
        <defs>
          <linearGradient x1="0" y1="0.5" x2="1" y2="0.5" id="linearGradientSk4zvm793y">
            <stop offset="0%" stop-color="#000000"></stop>
            <stop offset="100%" stop-color="#000000"></stop>
          </linearGradient>
        </defs>
        <g></g>
        <g></g>
        <g></g>
        <g>
          <path fill="url('#linearGradientSk4zvm793y')" d="M25.202,91.298h49.597c1.844,0,3.34-1.494,3.34-3.34l6.679-31.431c0-1.844-1.494-3.339-3.34-3.339h-4.34   h-2.005h-8.339H55.149h-3.682h-3.433h-0.001h-3.533H22.85h-4.327c-1.845,0-3.34,1.494-3.34,3.339l6.679,31.432   C21.861,89.804,23.357,91.298,25.202,91.298z M50,70.762c0.98,0,1.774,0.795,1.774,1.775c0,0.979-0.794,1.774-1.774,1.774   c-0.98,0-1.775-0.795-1.775-1.774C48.225,71.557,49.02,70.762,50,70.762z" stroke="none" style=""></path>
        </g>
      </svg>
    </g>
    <g transform="matrix(1,0,0,1,424.844,187)">
      <svg width="94" height="56" viewBox="3,22,94,56">
        <defs>
          <linearGradient x1="0" y1="0.5" x2="1" y2="0.5" id="linearGradientSk4zvm79314">
            <stop offset="0%" stop-color="#000000"></stop>
            <stop offset="100%" stop-color="#000000"></stop>
          </linearGradient>
        </defs>
        <g></g>
        <g></g>
        <g>
          <path d="M83.216,49.449c-0.343,0.303-0.701,0.593-1.086,0.861c-0.046,0.032-0.094,0.055-0.14,0.086    c-1.128,0.763-2.341,1.305-3.588,1.641c-0.419,0.112-0.841,0.202-1.266,0.269c0.674-0.302,1.332-0.664,1.96-1.102    c0.405-0.282,0.778-0.592,1.135-0.914c0.059-0.053,0.118-0.105,0.175-0.159c0.351-0.329,0.683-0.673,0.988-1.036    c0.002-0.002,0.004-0.004,0.006-0.006c0,0-0.001,0-0.001,0c0.187-0.223,0.369-0.45,0.539-0.683C81.119,36.447,71.166,27,59,27    c-7.875,0-14.823,3.96-18.969,9.995c0.636,1.108,1.11,2.331,1.37,3.653c0,0,0-0.001-0.001-0.001    c0.006,0.029,0.015,0.055,0.02,0.084c0.35,1.848,0.242,3.673-0.222,5.373c0-0.739-0.061-1.487-0.203-2.239    c-0.09-0.475-0.209-0.936-0.351-1.384c-0.07-0.222-0.162-0.43-0.244-0.645c-0.083-0.216-0.157-0.436-0.251-0.645    c-0.119-0.265-0.259-0.516-0.396-0.769c-0.078-0.144-0.149-0.293-0.233-0.433c-0.154-0.259-0.325-0.504-0.497-0.749    c-0.067-0.096-0.125-0.2-0.195-0.293c-0.002,0.003-0.003,0.006-0.005,0.009c-0.07-0.094-0.13-0.197-0.202-0.289    C36.65,37.604,34.396,37,32,37c-7.107,0-12.962,5.299-13.865,12.159C12.395,50.057,8,55.009,8,61c0,6.627,5.373,12,12,12h60    c6.627,0,12-5.373,12-12C92,55.488,88.279,50.856,83.216,49.449z" stroke="none" fill="url('#linearGradientSk4zvm79314')" style=""></path>
        </g>
      </svg>
    </g>
    <g transform="matrix(1.0872,0,0,1.0872,167.7483,228.1094)">
      <svg width="247.20000000000005" height="181" style="overflow: visible;">
        <defs>
          <linearGradient x1="0" y1="0.5" x2="1" y2="0.5" id="linearGradientSk4zvm7931k">
            <stop offset="0%" stop-color="#3a3a3a"></stop>
            <stop offset="100%" stop-color="#3a3a3a"></stop>
          </linearGradient>
        </defs>
        <g transform="matrix(1,0,0,1,0,90.75)">
          <path d="M 22.8 0L 22.8-56.8L 0.4-56.8L 0.4-70L 61.4-70L 61.4-56.8L 39-56.8L 39 0L 22.8 0ZM 116.19999999999999-26.7Q 116.19999999999999-26.4  115.9-22.5L 115.9-22.5L 75.19999999999999-22.5Q 76.3-17.5  80.4-14.6Q 84.5-11.7  90.6-11.7L 90.6-11.7Q 94.8-11.7  98.05-12.95Q 101.3-14.2  104.1-16.9L 104.1-16.9L 112.4-7.9Q 104.8 0.8  90.19999999999999 0.8L 90.19999999999999 0.8Q 81.1 0.8  74.1-2.75Q 67.1-6.3  63.3-12.6Q 59.5-18.9  59.5-26.9L 59.5-26.9Q 59.5-34.8  63.25-41.15Q 67-47.5  73.55-51.05Q 80.1-54.6  88.19999999999999-54.6L 88.19999999999999-54.6Q 96.1-54.6  102.5-51.2Q 108.9-47.8  112.55-41.45Q 116.19999999999999-35.1  116.19999999999999-26.7L 116.19999999999999-26.7ZM 88.3-42.8Q 83-42.8  79.4-39.8Q 75.8-36.8  75-31.6L 75-31.6L 101.5-31.6Q 100.69999999999999-36.7  97.1-39.75Q 93.5-42.8  88.3-42.8L 88.3-42.8ZM 152.60000000000002 0.8Q 144 0.8  137.15-2.75Q 130.3-6.3  126.45-12.6Q 122.60000000000001-18.9  122.60000000000001-26.9L 122.60000000000001-26.9Q 122.60000000000001-34.9  126.45-41.2Q 130.3-47.5  137.15-51.05Q 144-54.6  152.60000000000002-54.6L 152.60000000000002-54.6Q 161.10000000000002-54.6  167.45-51.05Q 173.8-47.5  176.7-40.9L 176.7-40.9L 164.60000000000002-34.4Q 160.4-41.8  152.5-41.8L 152.5-41.8Q 146.4-41.8  142.4-37.8Q 138.4-33.8  138.4-26.9L 138.4-26.9Q 138.4-20  142.4-16Q 146.4-12  152.5-12L 152.5-12Q 160.5-12  164.60000000000002-19.4L 164.60000000000002-19.4L 176.7-12.8Q 173.8-6.4  167.45-2.8Q 161.10000000000002 0.8  152.60000000000002 0.8L 152.60000000000002 0.8ZM 217.99999999999997-54.6Q 227.99999999999997-54.6  234.14999999999998-48.6Q 240.29999999999995-42.6  240.29999999999995-30.8L 240.29999999999995-30.8L 240.29999999999995 0L 224.69999999999996 0L 224.69999999999996-28.4Q 224.69999999999996-34.8  221.89999999999998-37.95Q 219.09999999999997-41.1  213.79999999999995-41.1L 213.79999999999995-41.1Q 207.89999999999998-41.1  204.39999999999998-37.45Q 200.89999999999998-33.8  200.89999999999998-26.6L 200.89999999999998-26.6L 200.89999999999998 0L 185.29999999999995 0L 185.29999999999995-74.2L 200.89999999999998-74.2L 200.89999999999998-48.2Q 203.99999999999997-51.3  208.39999999999998-52.95Q 212.79999999999995-54.6  217.99999999999997-54.6L 217.99999999999997-54.6Z" data-textpath="Tech" data-text-anchor="middle" data-font-size="100" data-letterspacing="0" data-side="left" data-offset="0.5" data-dx="0" data-dy="0" data-xmlspace="preserve" data-href="" data-font="Montserrat" data-font-src="/Content/clientfonts/montserrat-bold.woff" data-font-scale="contain" transform="translate(0,0)" data-x="0" data-y="0" fill="url('#linearGradientSk4zvm7931k')"></path>
        </g>
      </svg>
    </g>
    <g transform="matrix(0.5839,0,0,0.5839,108.7754,326.5166)">
      <svg width="658.8000000000001" height="181" style="overflow: visible;">
        <defs>
          <linearGradient x1="0" y1="0.5" x2="1" y2="0.5" id="linearGradientSk4zvm7931n">
            <stop offset="0%" stop-color="#ff6347"></stop>
            <stop offset="100%" stop-color="#ff6347"></stop>
          </linearGradient>
        </defs>
        <g transform="matrix(1,0,0,1,0,90.75)">
          <path d="M 78-70L 84.1-70L 84.1 0L 77 0L 77-56L 49.5-8.9L 46-8.9L 18.5-55.7L 18.5 0L 11.4 0L 11.4-70L 17.5-70L 47.9-18.1L 78-70ZM 105.4 0L 105.4-52.6L 112.5-52.6L 112.5 0L 105.4 0ZM 109-64.1Q 106.8-64.1  105.3-65.6Q 103.8-67.1  103.8-69.2L 103.8-69.2Q 103.8-71.2  105.3-72.7Q 106.8-74.2  109-74.2L 109-74.2Q 111.2-74.2  112.7-72.75Q 114.2-71.3  114.2-69.3L 114.2-69.3Q 114.2-67.1  112.7-65.6Q 111.2-64.1  109-64.1L 109-64.1ZM 159.1-53Q 169-53  174.85-47.25Q 180.7-41.5  180.7-30.5L 180.7-30.5L 180.7 0L 173.6 0L 173.6-29.8Q 173.6-38  169.5-42.3Q 165.39999999999998-46.6  157.79999999999998-46.6L 157.79999999999998-46.6Q 149.29999999999998-46.6  144.35-41.55Q 139.39999999999998-36.5  139.39999999999998-27.6L 139.39999999999998-27.6L 139.39999999999998 0L 132.29999999999998 0L 132.29999999999998-52.6L 139.1-52.6L 139.1-42.9Q 142-47.7  147.14999999999998-50.35Q 152.29999999999998-53  159.1-53L 159.1-53ZM 241.09999999999997-74.2L 248.2-74.2L 248.2 0L 241.39999999999998 0L 241.39999999999998-10.4Q 238.2-5.1  232.95-2.3Q 227.7 0.5  221.1 0.5L 221.1 0.5Q 213.7 0.5  207.7-2.9Q 201.7-6.3  198.29999999999998-12.4Q 194.89999999999998-18.5  194.89999999999998-26.3L 194.89999999999998-26.3Q 194.89999999999998-34.1  198.29999999999998-40.2Q 201.7-46.3  207.7-49.65Q 213.7-53  221.1-53L 221.1-53Q 227.5-53  232.64999999999998-50.35Q 237.79999999999998-47.7  241.09999999999997-42.6L 241.09999999999997-42.6L 241.09999999999997-74.2ZM 221.7-5.8Q 227.2-5.8  231.64999999999998-8.35Q 236.09999999999997-10.9  238.64999999999998-15.6Q 241.2-20.3  241.2-26.3L 241.2-26.3Q 241.2-32.3  238.64999999999998-37Q 236.09999999999997-41.7  231.64999999999998-44.25Q 227.2-46.8  221.7-46.8L 221.7-46.8Q 216.1-46.8  211.64999999999998-44.25Q 207.2-41.7  204.64999999999998-37Q 202.1-32.3  202.1-26.3L 202.1-26.3Q 202.1-20.3  204.64999999999998-15.6Q 207.2-10.9  211.64999999999998-8.35Q 216.1-5.8  221.7-5.8L 221.7-5.8ZM 343.70000000000005-63.6L 303.1000000000001-63.6L 303.1000000000001-36.1L 339.30000000000007-36.1L 339.30000000000007-29.7L 303.1000000000001-29.7L 303.1000000000001 0L 295.70000000000005 0L 295.70000000000005-70L 343.70000000000005-70L 343.70000000000005-63.6ZM 373.8-53Q 384.1-53  389.6-47.85Q 395.1-42.7  395.1-32.6L 395.1-32.6L 395.1 0L 388.3 0L 388.3-8.2Q 385.9-4.1  381.25-1.8Q 376.6 0.5  370.2 0.5L 370.2 0.5Q 361.4 0.5  356.2-3.7Q 351-7.9  351-14.8L 351-14.8Q 351-21.5  355.85-25.6Q 360.7-29.7  371.3-29.7L 371.3-29.7L 388-29.7L 388-32.9Q 388-39.7  384.2-43.25Q 380.4-46.8  373.1-46.8L 373.1-46.8Q 368.1-46.8  363.5-45.15Q 358.9-43.5  355.6-40.6L 355.6-40.6L 352.4-45.9Q 356.4-49.3  362-51.15Q 367.6-53  373.8-53L 373.8-53ZM 371.3-5.1Q 377.3-5.1  381.6-7.85Q 385.9-10.6  388-15.8L 388-15.8L 388-24.4L 371.5-24.4Q 358-24.4  358-15L 358-15Q 358-10.4  361.5-7.75Q 365-5.1  371.3-5.1L 371.3-5.1ZM 436.40000000000003 0.5Q 428.6 0.5  422.45000000000005-2.9Q 416.30000000000007-6.3  412.80000000000007-12.45Q 409.30000000000007-18.6  409.30000000000007-26.3L 409.30000000000007-26.3Q 409.30000000000007-34  412.80000000000007-40.1Q 416.30000000000007-46.2  422.45000000000005-49.6Q 428.6-53  436.40000000000003-53L 436.40000000000003-53Q 443.20000000000005-53  448.55000000000007-50.35Q 453.90000000000003-47.7  457.00000000000006-42.6L 457.00000000000006-42.6L 451.70000000000005-39Q 449.1-42.9  445.1-44.85Q 441.1-46.8  436.40000000000003-46.8L 436.40000000000003-46.8Q 430.70000000000005-46.8  426.15000000000003-44.25Q 421.6-41.7  419.05000000000007-37Q 416.50000000000006-32.3  416.50000000000006-26.3L 416.50000000000006-26.3Q 416.50000000000006-20.2  419.05000000000007-15.55Q 421.6-10.9  426.15000000000003-8.35Q 430.70000000000005-5.8  436.40000000000003-5.8L 436.40000000000003-5.8Q 441.1-5.8  445.1-7.7Q 449.1-9.6  451.70000000000005-13.5L 451.70000000000005-13.5L 457.00000000000006-9.9Q 453.90000000000003-4.8  448.50000000000006-2.15Q 443.1 0.5  436.40000000000003 0.5L 436.40000000000003 0.5ZM 496.70000000000005-8.3L 499.20000000000005-3.2Q 497.20000000000005-1.4  494.25-0.45Q 491.3 0.5  488.1 0.5L 488.1 0.5Q 480.70000000000005 0.5  476.70000000000005-3.5Q 472.70000000000005-7.5  472.70000000000005-14.8L 472.70000000000005-14.8L 472.70000000000005-46.6L 463.3-46.6L 463.3-52.6L 472.70000000000005-52.6L 472.70000000000005-64.1L 479.8-64.1L 479.8-52.6L 495.8-52.6L 495.8-46.6L 479.8-46.6L 479.8-15.2Q 479.8-10.5  482.15000000000003-8.05Q 484.5-5.6  488.90000000000003-5.6L 488.90000000000003-5.6Q 491.1-5.6  493.15000000000003-6.3Q 495.20000000000005-7  496.70000000000005-8.3L 496.70000000000005-8.3ZM 531.6999999999999 0.5Q 524.0999999999999 0.5  518-2.95Q 511.9-6.4  508.4-12.5Q 504.9-18.6  504.9-26.3L 504.9-26.3Q 504.9-34  508.4-40.1Q 511.9-46.2  518-49.6Q 524.0999999999999-53  531.6999999999999-53L 531.6999999999999-53Q 539.3-53  545.4-49.6Q 551.5-46.2  554.9499999999999-40.1Q 558.4-34  558.4-26.3L 558.4-26.3Q 558.4-18.6  554.9499999999999-12.5Q 551.5-6.4  545.4-2.95Q 539.3 0.5  531.6999999999999 0.5L 531.6999999999999 0.5ZM 531.6999999999999-5.8Q 537.3-5.8  541.75-8.35Q 546.1999999999999-10.9  548.6999999999999-15.6Q 551.1999999999999-20.3  551.1999999999999-26.3L 551.1999999999999-26.3Q 551.1999999999999-32.3  548.6999999999999-37Q 546.1999999999999-41.7  541.75-44.25Q 537.3-46.8  531.6999999999999-46.8L 531.6999999999999-46.8Q 526.0999999999999-46.8  521.65-44.25Q 517.1999999999999-41.7  514.65-37Q 512.0999999999999-32.3  512.0999999999999-26.3L 512.0999999999999-26.3Q 512.0999999999999-20.3  514.65-15.6Q 517.1999999999999-10.9  521.65-8.35Q 526.0999999999999-5.8  531.6999999999999-5.8L 531.6999999999999-5.8ZM 579.7000000000002-42.3Q 582.2000000000002-47.6  587.1500000000001-50.3Q 592.1000000000001-53  599.4000000000001-53L 599.4000000000001-53L 599.4000000000001-46.1L 597.7000000000002-46.2Q 589.4000000000001-46.2  584.7000000000002-41.1Q 580.0000000000001-36  580.0000000000001-26.8L 580.0000000000001-26.8L 580.0000000000001 0L 572.9000000000001 0L 572.9000000000001-52.6L 579.7000000000002-52.6L 579.7000000000002-42.3ZM 651.7-52.6L 658.7-52.6L 632.4 6.3Q 629.2 13.7  625 16.8Q 620.8000000000001 19.9  614.9 19.9L 614.9 19.9Q 611.1 19.9  607.8000000000001 18.7Q 604.5 17.5 602.1 15.1L 602.1 15.1L 605.4 9.8Q 609.4 13.8  615 13.8L 615 13.8Q 618.6 13.8  621.15 11.8Q 623.7 9.8  625.9 5L 625.9 5L 628.2-0.1L 604.7-52.6L 612.1-52.6L 631.9-7.9L 651.7-52.6Z" data-textpath="Mind Factory" data-text-anchor="middle" data-font-size="100" data-letterspacing="0" data-side="left" data-offset="0.5" data-dx="0" data-dy="0" data-xmlspace="preserve" data-href="" data-font="Montserrat" data-font-src="/Content/clientfonts/montserrat.woff" data-font-scale="contain" transform="translate(0,0)" data-x="0" data-y="0" fill="url('#linearGradientSk4zvm7931n')"></path>
        </g>
      </svg>
    </g>
    <g transform="matrix(0.152,0,0,0.152,199.1536,392.4806)">
      <svg width="1470.166015625" height="202" style="overflow: visible;">
        <defs>
          <linearGradient x1="0" y1="0.5" x2="1" y2="0.5" id="linearGradientSk4zvm7931q">
            <stop offset="0%" stop-color="#000000"></stop>
            <stop offset="100%" stop-color="#000000"></stop>
          </linearGradient>
        </defs>
        <g transform="matrix(1,0,0,1,0,106.5)">
          <path d="M 40.63 1.07L 40.63 1.07Q 33.89 1.07  29.42 0.17Q 24.95-0.73  22.12-1.78Q 19.29-2.83  17.82-5.1Q 16.36-7.37  15.63-8.64L 15.63-8.64L 15.63 0L 6.25 0L 6.25-75L 15.63-75L 15.63-50.93Q 16.26-51.95  17.75-53.15Q 19.24-54.35  22.09-55.4Q 24.95-56.45  29.44-57.13Q 33.94-57.81  40.63-57.81L 40.63-57.81Q 50-57.81  56.54-56.4Q 63.09-54.98  67.19-51.56Q 71.29-48.14  73.14-42.41Q 75-36.67  75-28.03L 75-28.03Q 75-19.53  73.14-13.92Q 71.29-8.3  67.19-4.98Q 63.09-1.66  56.54-0.29Q 50 1.07  40.63 1.07ZM 40.63-6.25L 40.63-6.25Q 46.09-6.25  50.07-6.59Q 54.05-6.93  56.84-7.81Q 59.62-8.69  61.35-10.25Q 63.09-11.82  64.04-14.23Q 64.99-16.65  65.31-20.04Q 65.63-23.44  65.63-28.03L 65.63-28.03Q 65.63-32.62  65.31-36.04Q 64.99-39.45  64.04-41.87Q 63.09-44.29  61.35-45.87Q 59.62-47.46  56.84-48.36Q 54.05-49.27  50.07-49.61Q 46.09-49.95  40.63-49.95L 40.63-49.95Q 35.94-49.95  32.28-49.73Q 28.61-49.51  25.83-48.73Q 23.05-47.95  21.12-46.48Q 19.19-45.02  17.97-42.58Q 16.75-40.14  16.19-36.52Q 15.63-32.91  15.63-27.88L 15.63-27.88Q 15.63-22.9  16.19-19.36Q 16.75-15.82  17.97-13.43Q 19.19-11.04  21.12-9.59Q 23.05-8.15  25.83-7.42Q 28.61-6.69  32.28-6.47Q 35.94-6.25  40.63-6.25ZM 79.69250000000005-56.25L 109.37250000000006 0L 112.50250000000005 0Q 111.72250000000005 1.56  111.11250000000005 2.98Q 110.50250000000005 4.39  109.62250000000006 5.62Q 108.74250000000006 6.84  107.42250000000006 7.81Q 106.10250000000005 8.79  103.93250000000006 9.5Q 101.76250000000006 10.21  98.53250000000006 10.57Q 95.31250000000006 10.94  90.62250000000006 10.94L 90.62250000000006 10.94L 90.62250000000006 18.75Q 96.09250000000006 18.75  100.10250000000005 18.24Q 104.10250000000005 17.72  107.00250000000005 16.77Q 109.91250000000005 15.82  111.91250000000005 14.45Q 113.91250000000005 13.09  115.38250000000005 11.35Q 116.84250000000006 9.62  117.99250000000006 7.54Q 119.14250000000006 5.47  120.31250000000006 3.13L 120.31250000000006 3.13L 121.87250000000006 0L 150.00250000000005-56.25L 139.06250000000006-56.25L 115.62250000000006-6.25L 90.62250000000006-56.25L 79.69250000000005-56.25ZM 193.75000000000003-7.81L 240.58000000000004-7.81Q 246.78000000000003-7.81  251.07000000000002-8.15Q 255.37000000000003-8.5  258.15000000000003-9.55Q 260.94000000000005-10.6  262.45000000000005-12.6Q 263.96000000000004-14.6  264.67-17.9Q 265.38-21.19  265.5-26Q 265.63-30.81  265.63-37.5L 265.63-37.5Q 265.63-44.19  265.5-49Q 265.38-53.81  264.67-57.1Q 263.96000000000004-60.4  262.45000000000005-62.4Q 260.94000000000005-64.4  258.15000000000003-65.45Q 255.37000000000003-66.5  251.10000000000002-66.85Q 246.83000000000004-67.19  240.58000000000004-67.19L 240.58000000000004-67.19L 193.75000000000003-67.19L 193.75000000000003-7.81ZM 240.58000000000004 0L 184.38000000000002 0L 184.38000000000002-75L 240.58000000000004-75Q 249.17000000000002-75  255.05-74Q 260.94000000000005-73  264.77000000000004-70.95Q 268.6-68.9  270.68000000000006-65.82Q 272.75-62.74  273.71000000000004-58.57Q 274.66-54.39  274.83000000000004-49.15Q 275-43.9  275-37.5L 275-37.5Q 275-31.1  274.83000000000004-25.85Q 274.66-20.61  273.71000000000004-16.43Q 272.75-12.26  270.68000000000006-9.18Q 268.6-6.1  264.77000000000004-4.05Q 260.94000000000005-2  255.05-1Q 249.17000000000002 0  240.58000000000004 0L 240.58000000000004 0ZM 343.51 0L 343.51-7.71Q 343.36-7.13  341.31-4.79L 341.31-4.79Q 339.84000000000003-3.03  337.4-1.68Q 334.96-0.34  330.88 0.42Q 326.81 1.17  320.17 1.17L 320.17 1.17Q 311.33 1.17  305.08 0.27Q 298.83-0.63  294.87-2.51Q 290.92-4.39  289.09-7.32Q 287.26-10.25  287.26-14.31L 287.26-14.31Q 287.26-18.55  288.26-21.51Q 289.26-24.46  291.19-26.46Q 293.12-28.47  295.85-29.59Q 298.58-30.71  302.08-31.3Q 305.57-31.88  309.72-32.03Q 313.87-32.18  318.55-32.18L 318.55-32.18Q 325.24-32.18  329.74-31.62Q 334.23-31.05  337.08-30.2Q 339.94-29.35  341.40999999999997-28.37Q 342.87-27.39  343.51-26.56L 343.51-26.56Q 343.51-32.03  343.04-35.89Q 342.58-39.75  341.53-42.33Q 340.48-44.92  338.82-46.46Q 337.15999999999997-48  334.74-48.78Q 332.32-49.56  329.1-49.78Q 325.88-50  321.73-50L 321.73-50Q 315.28-50  311.04-49.68Q 306.79-49.37  304.3-48.44Q 301.81-47.51  300.78-45.87Q 299.76-44.24  299.76-41.6L 299.76-41.6L 290.38-41.6Q 290.38-46.04  291.97-49.12Q 293.55-52.2  297.24-54.13Q 300.93-56.05  306.93-56.93Q 312.94-57.81  321.73-57.81L 321.73-57.81Q 330.32-57.81  336.28-56.4Q 342.24-54.98  345.92-51.42Q 349.61-47.85  351.25-41.82Q 352.88-35.79  352.88-26.56L 352.88-26.56L 352.88 0L 343.51 0ZM 321.73-6.25L 321.73-6.25Q 327.93-6.25  332.1-6.84Q 336.28-7.42  338.82-8.59Q 341.36-9.77  342.43-11.52Q 343.51-13.28  343.51-15.63L 343.51-15.63Q 343.51-17.97  342.26-19.6Q 341.02-21.24  338.11-22.27Q 335.21-23.29  330.42-23.75Q 325.63-24.22  318.6-24.22L 318.6-24.22Q 311.57-24.22  307.25-23.97Q 302.93-23.73  300.59-22.85Q 298.24-21.97  297.44-20.26Q 296.63-18.55  296.63-15.63L 296.63-15.63Q 296.63-12.7  297.49-10.86Q 298.34-9.03  300.98-8.01Q 303.61-6.98  308.57-6.62Q 313.53-6.25  321.73-6.25ZM 431.01085937500005 0L 421.63085937500006 0L 421.63085937500006-31.25Q 421.63085937500006-36.47  420.850859375-40.06Q 420.07085937500005-43.65  417.72085937500003-45.85Q 415.38085937500006-48.05  411.08085937500005-49.02Q 406.7908593750001-50  399.76085937500005-50L 399.76085937500005-50Q 392.14085937500005-50  387.28085937500003-48.88Q 382.4208593750001-47.75  379.64085937500005-45.7Q 376.850859375-43.65  375.8008593750001-40.77Q 374.76085937500005-37.89  374.76085937500005-34.38L 374.76085937500005-34.38L 374.76085937500005 0L 365.38085937500006 0L 365.38085937500006-56.25L 374.76085937500005-56.25L 374.76085937500005-46.88Q 375.78085937500003-49.27  377.68085937500007-51Q 379.59085937500004-52.73  381.9808593750001-53.96Q 384.37085937500007-55.18  387.1608593750001-55.93Q 389.94085937500006-56.69  392.72085937500003-57.1Q 395.51085937500005-57.52  398.12085937500007-57.67Q 400.7308593750001-57.81  402.88085937500006-57.81L 402.88085937500006-57.81Q 409.13085937500006-57.81  413.65085937500004-57.03Q 418.1608593750001-56.25  421.31085937500006-54.74Q 424.46085937500004-53.22  426.37085937500007-50.98Q 428.27085937500004-48.73  429.32085937500005-45.78Q 430.37085937500007-42.82  430.71085937500004-39.18Q 431.0508593750001-35.55  431.0508593750001-31.25L 431.0508593750001-31.25L 431.01085937500005 0ZM 446.6846875 0L 446.6846875-56.25L 456.0546875-56.25L 456.0546875 0L 446.6846875 0ZM 456.0546875-75L 456.0546875-65.63L 446.6846875-65.63L 446.6846875-75L 456.0546875-75ZM 504.4896875 1.07L 504.4896875 1.07Q 495.1196875 1.07  488.5696875-0.22Q 482.0296875-1.51  477.9296875-4.69Q 473.8296875-7.86  471.9696875-13.18Q 470.1196875-18.51  470.1196875-26.56L 470.1196875-26.56Q 470.1196875-35.79  471.9696875-41.82Q 473.8296875-47.85  477.9296875-51.42Q 482.0296875-54.98  488.5696875-56.4Q 495.1196875-57.81  504.4896875-57.81L 504.4896875-57.81Q 511.1796875-57.81  516.0896875-56.84Q 520.9996875-55.86  524.4896875-54Q 527.9796875-52.15  530.1496875-49.51Q 532.3196875-46.88  533.5696875-43.97Q 534.8096875-41.06  535.2796875-37.16Q 535.7396875-33.25  535.7396875-28.91L 535.7396875-28.91L 534.9596875-25.78L 479.4896875-25.78Q 479.4896875-19.34  480.7596875-15.21Q 482.0296875-11.08  484.9596875-9.18Q 487.8896875-7.28  492.6796875-6.76Q 497.4596875-6.25  504.4896875-6.25L 504.4896875-6.25Q 510.9396875-6.25  515.1596875-6.62Q 519.3896875-6.98  521.8796875-8.01Q 524.3696875-9.03  525.3696875-10.86Q 526.3696875-12.7  526.3696875-15.63L 526.3696875-15.63L 535.7396875-15.63Q 535.7396875-11.08  534.1596875-7.89Q 532.5696875-4.69  528.9096875-2.71Q 525.2396875-0.73  519.2596875 0.17Q 513.2796875 1.07  504.4896875 1.07ZM 504.4896875-50L 504.4896875-50Q 499.8096875-50  496.1196875-49.8Q 492.4296875-49.61  489.6696875-48.95Q 486.9096875-48.29  484.9596875-47.05Q 483.0096875-45.8  481.8096875-44.12Q 480.6196875-42.43  480.0496875-39.38Q 479.4896875-36.33  479.4896875-32.03L 479.4896875-32.03L 526.3696875-32.03Q 526.3696875-37.74  525.1496875-40.99Q 523.9296875-44.24  521.2896875-46.34Q 518.6496875-48.44  514.4996875-49.22Q 510.3496875-50  504.4896875-50ZM 551.3721875 0L 551.3721875-75L 560.7421875-75L 560.7421875 0L 551.3721875 0ZM 623.2421875-42.19L 671.6821875-75L 685.7421875-75L 632.6221875-38.28L 687.3021875 0L 673.2421875 0L 623.2421875-34.38L 610.7421875-34.38L 610.7421875 0L 601.3721875 0L 601.3721875-75L 610.7421875-75L 610.7421875-42.19L 623.2421875-42.19ZM 752.9296875-37.94L 745.1196875-37.94Q 745.1196875-41.46  744.5996875-43.77Q 744.0896875-46.09  742.1896875-47.49Q 740.2796875-48.88  736.5496875-49.44Q 732.8096875-50  726.3696875-50L 726.3696875-50Q 720.0696875-50  716.1096875-48.9Q 712.1596875-47.8  709.9096875-45.8Q 707.6696875-43.8  706.8596875-41.02Q 706.0596875-38.23  706.0596875-34.81L 706.0596875-34.81L 706.0596875 0L 696.6796875 0L 696.6796875-56.25L 706.0596875-56.25L 706.0596875-47.31Q 706.5396875-48.83  707.8596875-50.66Q 709.1796875-52.49  711.8696875-54.08Q 714.5496875-55.66  718.8196875-56.74Q 723.0996875-57.81  729.4896875-57.81L 729.4896875-57.81Q 736.8196875-57.81  741.4096875-56.52Q 745.9996875-55.22  748.5596875-52.71Q 751.1196875-50.2  752.0296875-46.48Q 752.9296875-42.77  752.9296875-37.94L 752.9296875-37.94ZM 818.5596874999998-56.25L 762.3096874999998-56.25L 762.3096874999998-49.37L 806.8396874999997-49.37L 759.1796874999998-7.81L 759.1796874999998 0L 818.5596874999998 0L 818.5596874999998-6.98L 771.5796874999997-6.98L 818.5596874999998-48.44L 818.5596874999998-56.25ZM 827.9346874999997-56.25L 857.6146874999997 0L 860.7446874999996 0Q 859.9646874999996 1.56  859.3546874999996 2.98Q 858.7446874999996 4.39  857.8646874999997 5.62Q 856.9846874999996 6.84  855.6646874999997 7.81Q 854.3446874999996 8.79  852.1746874999997 9.5Q 850.0046874999997 10.21  846.7746874999997 10.57Q 843.5546874999997 10.94  838.8646874999996 10.94L 838.8646874999996 10.94L 838.8646874999996 18.75Q 844.3346874999996 18.75  848.3446874999996 18.24Q 852.3446874999996 17.72  855.2446874999997 16.77Q 858.1546874999997 15.82  860.1546874999997 14.45Q 862.1546874999997 13.09  863.6246874999997 11.35Q 865.0846874999996 9.62  866.2346874999996 7.54Q 867.3846874999997 5.47  868.5546874999997 3.13L 868.5546874999997 3.13L 870.1146874999997 0L 898.2446874999996-56.25L 887.3046874999997-56.25L 863.8646874999997-6.25L 838.8646874999996-56.25L 827.9346874999997-56.25ZM 902.9321874999997-28.03L 902.9321874999997-28.03Q 902.9321874999997-33.89  903.5121874999996-38.38Q 904.1021874999997-42.87  905.5921874999997-46.19Q 907.0821874999997-49.51  909.5921874999997-51.73Q 912.1121874999997-53.96  915.9421874999997-55.32Q 919.7721874999996-56.69  925.0521874999996-57.28Q 930.3221874999997-57.86  937.3521874999997-57.86L 937.3521874999997-57.86Q 946.7321874999997-57.86  952.7821874999996-56.71Q 958.8421874999997-55.57  962.3521874999997-53.2Q 965.8721874999997-50.83  967.2321874999997-47.19Q 968.6021874999997-43.55  968.6021874999997-38.53L 968.6021874999997-38.53L 959.2321874999997-38.53Q 959.2321874999997-40.33  959.1321874999996-41.89Q 959.0321874999996-43.46  958.4221874999996-44.73Q 957.8121874999997-46  956.4921874999997-47Q 955.1721874999996-48  952.7321874999997-48.68Q 950.2921874999996-49.37  946.5621874999997-49.71Q 942.8221874999997-50.05  937.3521874999997-50.05L 937.3521874999997-50.05Q 931.1021874999997-50.05  926.8321874999997-49.61Q 922.5621874999997-49.17  919.7721874999996-48.17Q 916.9921874999997-47.17  915.4821874999997-45.48Q 913.9621874999997-43.8  913.2821874999996-41.36Q 912.6021874999997-38.92  912.4721874999997-35.62Q 912.3521874999997-32.32  912.3521874999997-28.03L 912.3521874999997-28.03Q 912.3521874999997-23.83  912.4721874999997-20.58Q 912.6021874999997-17.33  913.2821874999996-14.92Q 913.9621874999997-12.5  915.4821874999997-10.84Q 916.9921874999997-9.18  919.7721874999996-8.15Q 922.5621874999997-7.13  926.8321874999997-6.69Q 931.1021874999997-6.25  937.3521874999997-6.25L 937.3521874999997-6.25Q 942.8221874999997-6.25  946.5621874999997-6.64Q 950.2921874999996-7.03  952.7321874999997-7.76Q 955.1721874999996-8.5  956.4921874999997-9.57Q 957.8121874999997-10.64  958.4221874999996-12.04Q 959.0321874999996-13.43  959.1321874999996-15.11Q 959.2321874999997-16.8  959.2321874999997-18.75L 959.2321874999997-18.75L 968.6021874999997-18.75Q 968.6021874999997-13.62  967.2321874999997-9.86Q 965.8721874999997-6.1  962.3521874999997-3.69Q 958.8421874999997-1.27  952.7821874999996-0.1Q 946.7321874999997 1.07  937.3521874999997 1.07L 937.3521874999997 1.07Q 930.3221874999997 1.07  925.0521874999996 0.49Q 919.7721874999996-0.1  915.9421874999997-1.44Q 912.1121874999997-2.78  909.5921874999997-4.98Q 907.0821874999997-7.18  905.5921874999997-10.4Q 904.1021874999997-13.62  903.5121874999996-17.99Q 902.9321874999997-22.36  902.9321874999997-28.03ZM 1040.4835156249997-56.25L 984.2335156249997-56.25L 984.2335156249997-49.37L 1028.7635156249996-49.37L 981.1035156249997-7.81L 981.1035156249997 0L 1040.4835156249997 0L 1040.4835156249997-6.98L 993.5035156249996-6.98L 1040.4835156249997-48.44L 1040.4835156249997-56.25ZM 1052.9785156249995 0L 1052.9785156249995-75L 1062.3585156249997-75L 1062.3585156249997-33.98L 1065.4785156249995-33.98L 1099.8585156249997-56.25L 1113.9185156249996-56.25L 1074.0685156249995-30.08L 1115.4785156249995 0L 1101.4185156249996 0L 1065.4785156249995-26.95L 1062.3585156249997-26.95L 1062.3585156249997 0L 1052.9785156249995 0ZM 1115.4810156249996-28.52L 1115.4810156249996-28.52Q 1115.4810156249996-37.16  1117.3310156249995-42.82Q 1119.1910156249996-48.49  1123.2910156249995-51.81Q 1127.3910156249995-55.13  1133.9310156249996-56.47Q 1140.4810156249996-57.81  1149.8510156249995-57.81L 1149.8510156249995-57.81Q 1159.2310156249996-57.81  1165.7710156249996-56.47Q 1172.3110156249995-55.13  1176.4210156249997-51.81Q 1180.5210156249996-48.49  1182.3710156249995-42.82Q 1184.2310156249996-37.16  1184.2310156249996-28.52L 1184.2310156249996-28.52Q 1184.2310156249996-19.87  1182.3710156249995-14.16Q 1180.5210156249996-8.45  1176.4210156249997-5.08Q 1172.3110156249995-1.71  1165.7710156249996-0.32Q 1159.2310156249996 1.07  1149.8510156249995 1.07L 1149.8510156249995 1.07Q 1140.4810156249996 1.07  1133.9310156249996-0.32Q 1127.3910156249995-1.71  1123.2910156249995-5.08Q 1119.1910156249996-8.45  1117.3310156249995-14.16Q 1115.4810156249996-19.87  1115.4810156249996-28.52ZM 1124.8510156249995-28.52L 1124.8510156249995-28.52Q 1124.8510156249995-23.83  1125.1910156249996-20.36Q 1125.5410156249995-16.89  1126.4910156249996-14.4Q 1127.4410156249996-11.91  1129.1510156249994-10.35Q 1130.8610156249995-8.79  1133.6410156249995-7.86Q 1136.4210156249997-6.93  1140.4010156249994-6.59Q 1144.3810156249995-6.25  1149.8510156249995-6.25L 1149.8510156249995-6.25Q 1154.5410156249995-6.25  1158.2310156249996-6.47Q 1161.9110156249994-6.69  1164.6710156249997-7.47Q 1167.4310156249996-8.25  1169.3810156249995-9.69Q 1171.3410156249995-11.13  1172.5310156249996-13.62Q 1173.7310156249996-16.11  1174.2910156249995-19.75Q 1174.8510156249995-23.39  1174.8510156249995-28.52L 1174.8510156249995-28.52Q 1174.8510156249995-33.54  1174.2910156249995-37.08Q 1173.7310156249996-40.63  1172.5310156249996-43.02Q 1171.3410156249995-45.41  1169.3810156249995-46.8Q 1167.4310156249996-48.19  1164.6710156249997-48.9Q 1161.9110156249994-49.61  1158.2310156249996-49.8Q 1154.5410156249995-50  1149.8510156249995-50L 1149.8510156249995-50Q 1145.1710156249997-50  1141.4810156249996-49.8Q 1137.7910156249995-49.61  1135.0310156249996-48.9Q 1132.2710156249996-48.19  1130.3210156249995-46.8Q 1128.3710156249995-45.41  1127.1710156249997-43.02Q 1125.9810156249996-40.63  1125.4110156249994-37.08Q 1124.8510156249995-33.54  1124.8510156249995-28.52ZM 1270.1710156249997 0L 1292.0410156249995-56.25L 1281.1010156249995-56.25L 1263.7210156249996-7.03L 1245.1710156249997-56.25L 1235.7910156249995-56.25L 1217.0410156249995-7.03L 1199.8510156249995-56.25L 1188.9210156249997-56.25L 1210.7910156249995 0L 1223.2910156249995 0L 1240.4810156249996-46.09L 1257.6710156249997 0L 1270.1710156249997 0ZM 1334.2260156249995-25.63L 1334.2260156249995-25.63Q 1339.6960156249995-25.63  1343.5560156249996-25.46Q 1347.4160156249995-25.29  1350.0260156249994-24.88Q 1352.6360156249996-24.46  1354.1460156249996-23.83Q 1355.6660156249995-23.19  1356.4460156249995-21.95Q 1357.2260156249995-20.7  1357.4460156249995-19.46Q 1357.6660156249995-18.21  1357.6660156249995-16.6L 1357.6660156249995-16.6Q 1357.6660156249995-14.84  1357.4460156249995-13.4Q 1357.2260156249995-11.96  1356.3960156249996-10.79Q 1355.5660156249996-9.62  1353.9560156249995-8.79Q 1352.3460156249996-7.96  1349.5560156249996-7.37Q 1346.7760156249994-6.79  1342.6560156249996-6.52Q 1338.5260156249994-6.25  1332.6660156249995-6.25L 1332.6660156249995-6.25Q 1326.2160156249995-6.25  1321.9960156249995-6.62Q 1317.7760156249994-6.98  1315.2860156249994-8.01Q 1312.7960156249997-9.03  1311.7960156249997-10.86Q 1310.7960156249997-12.7  1310.7960156249997-15.63L 1310.7960156249997-15.63L 1301.4160156249995-15.63Q 1301.4160156249995-11.18  1303.0060156249995-8.11Q 1304.5860156249996-5.03  1308.2560156249995-3.1Q 1311.9160156249995-1.17  1317.8960156249996-0.29Q 1323.8760156249996 0.59  1332.6660156249995 0.59L 1332.6660156249995 0.59Q 1339.6960156249995 0.59  1344.9960156249995 0.17Q 1350.2960156249997-0.24  1354.1060156249996-1.1Q 1357.9060156249996-1.95  1360.4260156249995-3.34Q 1362.9360156249995-4.74  1364.4060156249996-6.67Q 1365.8660156249996-8.59  1366.4560156249995-11.11Q 1367.0460156249997-13.62  1367.0460156249997-16.8L 1367.0460156249997-16.8Q 1367.0460156249997-19.97  1366.4560156249995-22.39Q 1365.8660156249996-24.8  1364.4260156249995-26.59Q 1362.9860156249995-28.37  1360.5960156249996-29.88Q 1358.2060156249995-31.4  1354.5460156249997-32.13Q 1350.8760156249996-32.86  1345.8760156249996-33.15Q 1340.8660156249996-33.45  1334.2260156249995-33.45L 1334.2260156249995-33.45Q 1328.7560156249995-33.45  1324.9060156249996-33.47Q 1321.0460156249997-33.5  1318.4360156249995-33.76Q 1315.8160156249996-34.03  1314.3060156249996-34.57Q 1312.7960156249997-35.11  1312.0160156249995-36.13Q 1311.2260156249995-37.16  1311.0060156249995-38.75Q 1310.7960156249997-40.33  1310.7960156249997-41.99L 1310.7960156249997-41.99Q 1310.7960156249997-44.82  1312.0560156249996-46.44Q 1313.3260156249996-48.05  1316.2560156249995-48.83Q 1319.1860156249995-49.61  1323.9760156249995-49.8Q 1328.7560156249995-50  1335.7960156249997-50L 1335.7960156249997-50Q 1342.2360156249995-50  1346.4560156249995-49.63Q 1350.6860156249995-49.27  1353.1760156249995-48.32Q 1355.6660156249995-47.36  1356.6660156249995-45.7Q 1357.6660156249995-44.04  1357.6660156249995-41.41L 1357.6660156249995-41.41L 1367.0460156249997-41.41Q 1367.0460156249997-45.65  1365.6260156249996-48.73Q 1364.2060156249995-51.81  1360.6660156249995-53.83Q 1357.1260156249996-55.86  1351.0960156249996-56.84Q 1345.0660156249996-57.81  1335.7960156249997-57.81L 1335.7960156249997-57.81Q 1326.4160156249995-57.81  1319.8760156249996-56.98Q 1313.3260156249996-56.15  1309.2260156249995-54.27Q 1305.1260156249996-52.39  1303.2760156249994-49.39Q 1301.4160156249995-46.39  1301.4160156249995-41.99L 1301.4160156249995-41.99Q 1301.4160156249995-38.77  1302.0060156249995-36.01Q 1302.5860156249996-33.25  1304.0060156249995-31.37Q 1305.4160156249995-29.49  1307.8360156249996-28.37Q 1310.2560156249995-27.25  1313.8960156249996-26.64Q 1317.5260156249994-26.03  1322.5560156249996-25.83Q 1327.5860156249996-25.63  1334.2260156249995-25.63ZM 1379.5410156249995 0L 1379.5410156249995-75L 1388.9210156249997-75L 1388.9210156249997-33.98L 1392.0410156249995-33.98L 1426.4210156249997-56.25L 1440.4810156249996-56.25L 1400.6310156249995-30.08L 1442.0410156249995 0L 1427.9810156249996 0L 1392.0410156249995-26.95L 1388.9210156249997-26.95L 1388.9210156249997 0L 1379.5410156249995 0ZM 1451.4210156249994 0L 1451.4210156249994-56.25L 1460.7910156249993-56.25L 1460.7910156249993 0L 1451.4210156249994 0ZM 1460.7910156249993-75L 1460.7910156249993-65.63L 1451.4210156249994-65.63L 1451.4210156249994-75L 1460.7910156249993-75Z" data-textpath="by Daniel Krzyczkowski" data-text-anchor="middle" data-font-size="100" data-letterspacing="0" data-side="left" data-offset="0.5" data-dx="0" data-dy="0" data-xmlspace="preserve" data-href="" data-font="Michroma" data-font-src="/Content/clientfonts/michroma.woff" data-font-scale="contain" transform="translate(0,0)" data-x="0" data-y="0" fill="url('#linearGradientSk4zvm7931q')"></path>
        </g>
      </svg>
    </g>
  </g>
</svg>